<?xml version="1.0" standalone="no"?>
<!DOCTYPE svg PUBLIC "-//W3C//DTD SVG 20010904//EN"
 "http://www.w3.org/TR/2001/REC-SVG-20010904/DTD/svg10.dtd">
<svg version="1.0" xmlns="http://www.w3.org/2000/svg"
 width="500.000000pt" height="500.000000pt" viewBox="0 0 500.000000 500.000000"
 preserveAspectRatio="xMidYMid meet">

<g transform="translate(0.000000,500.000000) scale(0.100000,-0.100000)"
fill="#000000" stroke="none">
<path d="M3588 3452 c-8 -9 -35 -47 -61 -83 -96 -137 -276 -274 -460 -350
-107 -44 -253 -83 -346 -94 l-63 -7 7 43 c18 114 90 288 159 384 l35 49 -27
12 c-25 11 -29 9 -60 -24 -54 -61 -129 -225 -161 -352 l-29 -115 -104 2 c-240
4 -474 86 -640 224 l-47 40 -15 -28 c-13 -27 -13 -29 28 -64 162 -141 392
-226 645 -236 l133 -6 -6 -56 c-16 -140 32 -424 103 -606 36 -95 114 -234 182
-326 128 -174 394 -372 464 -345 24 9 11 22 -64 61 -182 96 -352 279 -463 498
-52 105 -113 289 -134 407 -16 91 -25 352 -13 364 3 3 48 13 100 22 147 25
254 60 385 124 137 67 253 149 341 243 67 71 143 183 143 209 0 25 -15 30 -32
10z"/>
<path d="M50 2356 c0 -10 9 -16 25 -16 l25 0 0 -205 0 -205 -25 0 c-16 0 -25
-6 -25 -15 0 -12 14 -15 70 -15 56 0 70 3 70 15 0 9 -9 15 -25 15 -25 0 -25 1
-25 79 l0 78 81 6 c44 4 92 12 106 19 64 31 91 126 54 185 -37 59 -62 68 -203
72 -112 3 -128 1 -128 -13z m225 -26 c84 -19 115 -112 56 -171 -28 -27 -34
-29 -110 -29 l-81 0 0 105 0 105 48 0 c26 0 65 -5 87 -10z"/>
<path d="M585 2355 c-82 -44 -110 -100 -110 -220 0 -74 4 -98 22 -131 73 -136
247 -149 330 -25 74 109 49 293 -49 363 -42 30 -148 37 -193 13z m173 -41 c46
-34 72 -98 72 -179 0 -86 -27 -148 -80 -183 -48 -32 -137 -28 -176 9 -66 60
-86 201 -41 289 32 65 78 93 145 88 31 -3 64 -13 80 -24z"/>
<path d="M930 2356 c0 -10 9 -16 25 -16 l25 0 0 -205 0 -205 -25 0 c-16 0 -25
-6 -25 -15 0 -12 14 -15 70 -15 56 0 70 3 70 15 0 9 -9 15 -25 15 -25 0 -25 1
-25 90 l0 90 84 0 c113 0 128 -11 137 -110 5 -54 11 -77 25 -87 24 -18 64 -17
64 2 0 8 -9 15 -20 15 -22 0 -26 14 -33 100 -4 46 -9 59 -34 79 l-30 24 29 26
c58 52 45 151 -25 188 -47 25 -287 33 -287 9z m230 -25 c54 -11 80 -40 80 -90
-1 -68 -37 -91 -144 -91 l-76 0 0 88 c0 49 3 92 7 95 9 9 78 8 133 -2z"/>
<path d="M1370 2320 c0 -37 4 -50 14 -50 9 0 16 12 18 33 3 32 3 32 66 35 l62
3 0 -206 0 -205 -25 0 c-16 0 -25 -6 -25 -15 0 -12 14 -15 70 -15 56 0 70 3
70 15 0 9 -9 15 -25 15 l-25 0 2 203 3 202 62 3 62 3 3 -33 c2 -22 9 -34 21
-36 14 -3 17 4 17 47 l0 51 -185 0 -185 0 0 -50z"/>
<path d="M1967 2338 c-7 -18 -45 -116 -83 -217 -48 -130 -74 -186 -86 -189
-10 -2 -18 -11 -18 -18 0 -10 15 -14 55 -14 41 0 55 4 55 14 0 8 -8 16 -19 18
-18 3 -18 5 2 56 l20 53 105 -3 105 -3 18 -52 c17 -52 17 -53 -2 -53 -10 0
-19 -7 -19 -15 0 -12 13 -15 55 -15 41 0 55 4 55 14 0 8 -7 16 -16 18 -12 2
-42 70 -98 218 -87 230 -102 253 -129 188z m79 -151 l42 -112 -85 -3 c-47 -2
-88 0 -91 2 -3 3 14 58 38 121 23 64 45 113 49 110 3 -4 24 -57 47 -118z"/>
<path d="M2260 2355 c0 -9 9 -15 25 -15 l25 0 0 -205 0 -205 -25 0 c-16 0 -25
-6 -25 -15 0 -13 24 -15 160 -15 l160 0 0 50 c0 37 -4 50 -14 50 -9 0 -16 -12
-18 -32 l-3 -33 -98 -3 -97 -3 2 203 c3 202 3 203 26 206 12 2 22 10 22 18 0
11 -16 14 -70 14 -56 0 -70 -3 -70 -15z"/>
<path d="M2957 2363 c-4 -3 -7 -26 -7 -50 0 -36 3 -43 19 -43 15 0 21 8 23 33
3 32 3 32 66 35 l62 3 0 -206 0 -205 -25 0 c-16 0 -25 -6 -25 -15 0 -12 14
-15 70 -15 56 0 70 3 70 15 0 9 -9 15 -25 15 l-25 0 0 205 0 205 65 0 65 0 0
-35 c0 -28 4 -35 20 -35 17 0 20 7 20 50 l0 50 -183 0 c-101 0 -187 -3 -190
-7z"/>
<path d="M3370 2355 c0 -9 9 -15 25 -15 l25 0 0 -205 0 -205 -25 0 c-16 0 -25
-6 -25 -15 0 -13 26 -15 175 -15 l175 0 0 50 c0 43 -3 50 -20 50 -16 0 -20 -7
-20 -35 l0 -35 -110 0 -110 0 0 100 0 100 95 0 c78 0 95 3 95 15 0 12 -17 15
-95 15 l-96 0 3 88 3 87 108 3 107 3 0 -36 c0 -28 4 -35 20 -35 17 0 20 7 20
50 l0 50 -175 0 c-149 0 -175 -2 -175 -15z"/>
<path d="M3864 2351 c-62 -38 -80 -92 -49 -150 16 -31 66 -59 158 -87 107 -33
141 -104 76 -158 -25 -21 -41 -26 -87 -26 -34 0 -71 7 -92 18 -29 14 -35 23
-38 55 -2 23 -8 37 -17 37 -17 0 -22 -18 -15 -60 15 -100 256 -116 305 -19 46
88 -4 151 -156 199 -34 10 -72 29 -85 41 -33 31 -32 78 2 110 22 20 35 24 93
24 86 0 121 -20 121 -70 0 -25 4 -35 16 -35 12 0 14 10 12 47 -3 44 -6 49 -43
70 -53 30 -155 32 -201 4z"/>
<path d="M4180 2356 c0 -8 10 -16 23 -18 22 -3 22 -4 25 -205 l2 -203 -25 0
c-16 0 -25 -6 -25 -15 0 -13 26 -15 170 -15 l170 0 0 50 c0 38 -4 50 -15 50
-10 0 -15 -11 -15 -35 l0 -35 -110 0 -110 0 0 100 0 100 95 0 c78 0 95 3 95
15 0 12 -17 15 -95 15 l-95 0 0 90 0 91 108 -3 107 -3 3 -32 c2 -21 9 -33 18
-33 10 0 14 13 14 50 l0 50 -170 0 c-141 0 -170 -2 -170 -14z"/>
<path d="M4675 2355 c-47 -24 -65 -52 -65 -99 0 -71 31 -99 157 -137 112 -35
151 -96 99 -156 -21 -24 -32 -28 -92 -31 -87 -4 -131 18 -136 70 -2 22 -9 34
-20 36 -15 3 -18 -4 -18 -37 0 -33 5 -44 33 -65 57 -44 159 -55 222 -23 92 45
98 151 12 201 -23 13 -60 29 -82 36 -118 34 -158 74 -134 131 6 17 24 36 40
44 37 20 113 19 155 -1 28 -13 35 -24 40 -55 9 -56 34 -52 34 5 0 40 -3 46
-37 68 -49 30 -163 37 -208 13z"/>
</g>
</svg>
