<svg xmlns="http://www.w3.org/2000/svg" xmlns:xlink="http://www.w3.org/1999/xlink" width="500" zoomAndPan="magnify" viewBox="0 0 375 374.999991" height="500" preserveAspectRatio="xMidYMid meet" version="1.0"><defs><clipPath id="60ddd90f84"><path d="M 149 37 L 372 37 L 372 373 L 149 373 Z M 149 37 " clip-rule="nonzero"/></clipPath><clipPath id="dfa578fade"><path d="M 281.003906 374.992188 L 75.148438 293.898438 L 176.308594 37.105469 L 382.160156 118.195312 Z M 281.003906 374.992188 " clip-rule="nonzero"/></clipPath><clipPath id="3c7260083a"><path d="M 281.003906 374.992188 L 75.148438 293.898438 L 224.410156 -85.011719 L 430.265625 -3.917969 Z M 281.003906 374.992188 " clip-rule="nonzero"/></clipPath><clipPath id="15b8e5150e"><path d="M 3 0 L 331 0 L 331 141 L 3 141 Z M 3 0 " clip-rule="nonzero"/></clipPath><clipPath id="3f3bb94e2d"><path d="M 333.484375 34.234375 L 237.5625 221.890625 L 3.160156 102.070312 L 99.082031 -85.582031 Z M 333.484375 34.234375 " clip-rule="nonzero"/></clipPath><clipPath id="1a5615a5a6"><path d="M 333.484375 34.234375 L 237.5625 221.890625 L -107.695312 45.40625 L -11.773438 -142.25 Z M 333.484375 34.234375 " clip-rule="nonzero"/></clipPath></defs><g clip-path="url(#60ddd90f84)"><g clip-path="url(#dfa578fade)"><g clip-path="url(#3c7260083a)"><path fill="#368085" d="M 363.972656 -28.269531 C 329.644531 -25.410156 294.660156 -22.804688 262.023438 -10.953125 C 228.800781 1.109375 198.496094 24.085938 178.90625 53.625 C 157.105469 86.511719 148.515625 126.96875 149.445312 166.027344 C 150.378906 205.175781 160.53125 244.089844 178.5625 278.824219 C 196.457031 313.300781 222.613281 343.667969 256.390625 363.332031 C 261.507812 366.3125 266.796875 368.976562 272.214844 371.367188 C 274.808594 372.515625 278.613281 372.980469 280.929688 370.9375 C 283.09375 369.03125 281.523438 366.308594 279.296875 365.324219 C 260.933594 357.214844 244.878906 345.929688 230.332031 331.816406 C 217.132812 319.007812 205.757812 303.925781 196.371094 287.996094 C 177.355469 255.714844 165.628906 218.367188 162.65625 181.015625 C 159.628906 143 165.148438 103.308594 183.351562 69.421875 C 192.328125 52.714844 204.261719 38.300781 218.613281 25.953125 C 231.210938 15.109375 244.320312 6.605469 259.511719 -0.105469 C 267.144531 -3.480469 272.839844 -5.5 280.59375 -7.753906 C 288.089844 -9.929688 295.710938 -11.667969 303.386719 -13.09375 C 307.425781 -13.847656 311.484375 -14.511719 315.550781 -15.113281 C 314.425781 -14.945312 315.617188 -15.121094 315.898438 -15.160156 C 316.347656 -15.226562 316.796875 -15.289062 317.25 -15.351562 C 318.335938 -15.503906 319.425781 -15.652344 320.515625 -15.792969 C 322.53125 -16.058594 324.554688 -16.3125 326.574219 -16.550781 C 335.386719 -17.601562 344.21875 -18.433594 353.058594 -19.207031 C 357.515625 -19.597656 361.976562 -19.972656 366.4375 -20.34375 C 368.621094 -20.523438 372.195312 -21.792969 371.355469 -24.660156 C 370.546875 -27.417969 366.429688 -28.476562 363.972656 -28.269531 Z M 363.972656 -28.269531 " fill-opacity="1" fill-rule="nonzero"/></g></g></g><g clip-path="url(#15b8e5150e)"><g clip-path="url(#3f3bb94e2d)"><g clip-path="url(#1a5615a5a6)"><path fill="#368085" d="M -40.992188 -81.65625 C -41.460938 -48.847656 -42.234375 -15.445312 -34.027344 16.589844 C -25.671875 49.199219 -6.707031 80.046875 19.472656 101.339844 C 48.617188 125.046875 86.164062 136.921875 123.265625 139.648438 C 160.453125 142.382812 198.273438 136.347656 232.859375 122.464844 C 267.191406 108.683594 298.390625 86.691406 320.15625 56.492188 C 323.453125 51.914062 326.46875 47.144531 329.238281 42.230469 C 330.5625 39.878906 331.359375 36.316406 329.636719 33.929688 C 328.03125 31.703125 325.304688 32.941406 324.167969 34.957031 C 314.777344 51.621094 302.597656 65.796875 287.875 78.28125 C 274.511719 89.613281 259.167969 99.003906 243.199219 106.429688 C 210.847656 121.472656 174.367188 129.140625 138.691406 128.511719 C 102.382812 127.871094 65.28125 118.972656 34.855469 98.585938 C 19.851562 88.535156 7.300781 75.894531 -3.074219 61.148438 C -12.183594 48.203125 -19.027344 34.992188 -23.980469 19.96875 C -26.46875 12.425781 -27.855469 6.839844 -29.273438 -0.71875 C -30.644531 -8.027344 -31.582031 -15.410156 -32.226562 -22.820312 C -32.5625 -26.71875 -32.816406 -30.625 -33.011719 -34.535156 C -32.957031 -33.457031 -33.011719 -34.601562 -33.023438 -34.871094 C -33.042969 -35.300781 -33.0625 -35.734375 -33.078125 -36.167969 C -33.121094 -37.214844 -33.160156 -38.257812 -33.195312 -39.304688 C -33.261719 -41.242188 -33.3125 -43.183594 -33.351562 -45.121094 C -33.527344 -53.570312 -33.5 -62.019531 -33.414062 -70.472656 C -33.371094 -74.734375 -33.3125 -78.996094 -33.25 -83.257812 C -33.222656 -85.34375 -34.089844 -88.847656 -36.890625 -88.316406 C -39.574219 -87.808594 -40.960938 -84.003906 -40.992188 -81.65625 Z M -40.992188 -81.65625 " fill-opacity="1" fill-rule="nonzero"/></g></g></g></svg>